<svg width="1267" height="56" viewBox="0 0 1267 56" fill="none" xmlns="http://www.w3.org/2000/svg">
<path opacity="0.12" d="M1266.41 54.9996L1250.36 54.9996M790.409 54.9996L1250.36 54.9996M1250.36 54.9996C1232.13 55.081 1195.67 44.1952 1195.67 5.08602e-06M850.696 54.9996C832.464 55.081 796 44.1952 796 0M846.365 54.9996L454.696 54.9996M454.696 54.9996H454.289M454.696 54.9996C454.561 55.0002 454.426 55.0002 454.289 54.9996M454.289 54.9996L394.409 54.9996M454.289 54.9996C435.927 54.9183 400 43.8685 400 0M451.365 54.9996L55.6962 54.9996M55.6962 54.9996H55.2888M55.6962 54.9996C55.5614 55.0002 55.4256 55.0002 55.2888 54.9996M55.2888 54.9996C36.927 54.9183 1 43.8685 1 0" stroke="black" stroke-width="2" stroke-dasharray="2 2"/>
</svg>
