<svg width="1068" height="1239" viewBox="0 0 1068 1239" fill="none" xmlns="http://www.w3.org/2000/svg">
<path d="M93.1774 -663.216C59.0333 -790.293 132.75 -848.702 173.877 -862.021L781.431 -1097.7L1592.36 992.795L984.806 1228.47C945.455 1246.37 851.634 1252.95 791.152 1136.09C715.549 990.018 659.533 1016.49 603.836 1011.23C548.138 1005.97 487.112 986.98 473.533 842.129C459.955 697.277 422.75 564.751 297.127 501.287C196.629 450.516 159.378 378.082 148.606 350.314C137.835 322.546 116.496 243.939 156.467 138.678C206.431 7.10198 144.534 -115.846 56.8798 -231.963C-30.7745 -348.08 1.4799 -403.257 39.0623 -444.699C76.6448 -486.141 135.858 -504.37 93.1774 -663.216Z" fill="black"/>
<path d="M93.1774 -663.216C59.0333 -790.293 132.75 -848.702 173.877 -862.021L781.431 -1097.7L1592.36 992.795L984.806 1228.47C945.455 1246.37 851.634 1252.95 791.152 1136.09C715.549 990.018 659.533 1016.49 603.836 1011.23C548.138 1005.97 487.112 986.98 473.533 842.129C459.955 697.277 422.75 564.751 297.127 501.287C196.629 450.516 159.378 378.082 148.606 350.314C137.835 322.546 116.496 243.939 156.467 138.678C206.431 7.10198 144.534 -115.846 56.8798 -231.963C-30.7745 -348.08 1.4799 -403.257 39.0623 -444.699C76.6448 -486.141 135.858 -504.37 93.1774 -663.216Z" fill="url(#paint0_linear_101_74)"/>
<defs>
<linearGradient id="paint0_linear_101_74" x1="210.718" y1="-761.136" x2="885.142" y2="1749.12" gradientUnits="userSpaceOnUse">
<stop stop-color="#ED374D"/>
<stop offset="0.505208" stop-color="#FA793F"/>
<stop offset="1" stop-color="#F7F651"/>
</linearGradient>
</defs>
</svg>
