<svg width="1318" height="1370" viewBox="0 0 1318 1370" fill="none" xmlns="http://www.w3.org/2000/svg">
<path opacity="0.02" d="M93.1527 209.113C-28.8096 119.973 -4.86781 14.6839 22.3484 -26.8181L396.421 -674.73L2625.78 612.391L2251.71 1260.3C2229.37 1304.62 2150.16 1378 2011.98 1316.95C1839.26 1240.63 1808.18 1304.61 1754.56 1339.97C1700.95 1375.34 1632.68 1402.24 1516.33 1282.4C1399.99 1162.57 1271.37 1070.75 1113.31 1104.33C986.872 1131.2 901.436 1093.19 871.824 1076.09C842.211 1058.99 766.573 1004.01 726.618 881.076C676.675 727.408 532.851 661.926 370.895 621.084C208.939 580.243 198.107 507.671 201.922 443.556C205.738 379.442 245.605 320.538 93.1527 209.113Z" fill="black"/>
</svg>
