<svg width="1146" height="1431" viewBox="0 0 1146 1431" fill="none" xmlns="http://www.w3.org/2000/svg">
<path d="M52.0974 71.0378C-33.9162 -28.5414 7.06076 -113.198 38.301 -143.078L482.886 -619.535L2122.3 910.207L1677.71 1386.66C1650.06 1419.89 1568.44 1466.63 1463.15 1387.7C1331.54 1289.05 1292.62 1337.24 1240.18 1356.73C1187.73 1376.22 1124.52 1385.66 1049.3 1261.13C974.071 1136.6 882.931 1033.45 742.21 1030.94C629.634 1028.93 564.587 979.904 542.811 959.584C521.034 939.265 467.632 877.762 457.845 765.594C445.611 625.383 336.403 541.592 206.972 475.155C77.5404 408.717 82.587 345.004 98.405 291.341C114.223 237.678 159.615 195.512 52.0974 71.0378Z" fill="black"/>
<path d="M52.0974 71.0378C-33.9162 -28.5414 7.06076 -113.198 38.301 -143.078L482.886 -619.535L2122.3 910.207L1677.71 1386.66C1650.06 1419.89 1568.44 1466.63 1463.15 1387.7C1331.54 1289.05 1292.62 1337.24 1240.18 1356.73C1187.73 1376.22 1124.52 1385.66 1049.3 1261.13C974.071 1136.6 882.931 1033.45 742.21 1030.94C629.634 1028.93 564.587 979.904 542.811 959.584C521.034 939.265 467.632 877.762 457.845 765.594C445.611 625.383 336.403 541.592 206.972 475.155C77.5404 408.717 82.587 345.004 98.405 291.341C114.223 237.678 159.615 195.512 52.0974 71.0378Z" fill="url(#paint0_linear_101_73)"/>
<defs>
<linearGradient id="paint0_linear_101_73" x1="-765.041" y1="-411.364" x2="1226.03" y2="1193.9" gradientUnits="userSpaceOnUse">
<stop stop-color="#ED374D"/>
<stop offset="0.505208" stop-color="#FA793F"/>
<stop offset="1" stop-color="#F7F651"/>
</linearGradient>
</defs>
</svg>
