<svg width="784" height="1509" viewBox="0 0 784 1509" fill="none" xmlns="http://www.w3.org/2000/svg">
<path d="M47.0015 -93.6856C-6.17765 -214.045 57.7382 -283.042 96.3434 -302.495L660.701 -628.327L1781.84 1313.54L1617.48 1489.37C1581.33 1513.08 1489.62 1533.93 1411.97 1427.69C1314.92 1294.9 1263.61 1329.63 1207.76 1332.95C1151.92 1336.27 762.5 1427 653.129 1325.77C546.358 1226.95 560.517 1069.42 426.666 1025.92C319.585 991.118 271.693 925.234 256.801 899.44C241.909 873.646 208.797 799.228 232.198 689.092C261.449 551.422 181.476 439.388 77.0925 338.045C-27.2908 236.701 -3.85551 177.24 26.946 130.537C57.7475 83.8341 113.476 56.7633 47.0015 -93.6856Z" fill="black"/>
<path d="M47.0015 -93.6856C-6.17765 -214.045 57.7382 -283.042 96.3434 -302.495L660.701 -628.327L1781.84 1313.54L1617.48 1489.37C1581.33 1513.08 1489.62 1533.93 1411.97 1427.69C1314.92 1294.9 1263.61 1329.63 1207.76 1332.95C1151.92 1336.27 762.5 1427 653.129 1325.77C546.358 1226.95 560.517 1069.42 426.666 1025.92C319.585 991.118 271.693 925.234 256.801 899.44C241.909 873.646 208.797 799.228 232.198 689.092C261.449 551.422 181.476 439.388 77.0925 338.045C-27.2908 236.701 -3.85551 177.24 26.946 130.537C57.7475 83.8341 113.476 56.7633 47.0015 -93.6856Z" fill="url(#paint0_linear_101_75)"/>
<defs>
<linearGradient id="paint0_linear_101_75" x1="611.133" y1="-599.877" x2="897.266" y2="2118.42" gradientUnits="userSpaceOnUse">
<stop stop-color="#ED374D"/>
<stop offset="0.505208" stop-color="#FA793F"/>
<stop offset="1" stop-color="#F7F651"/>
</linearGradient>
</defs>
</svg>
